<?xml version="1.0" encoding="UTF-8"?>
<svg width="29.99mm" height="32.44mm" version="1.1" viewBox="0 0 2998.6 3243.9" xmlns="http://www.w3.org/2000/svg">
 <path d="m2267.8 837a1190.6 1190.6 0 0 1 135.06 1678.3 1190.6 1190.6 0 0 1-1678.2 135.28 1190.6 1190.6 0 0 1-135.51-1678.2 1190.6 1190.6 0 0 1 1678.2-135.74" fill="none" opacity=".97" stroke="#000" stroke-dasharray="35, 35" stroke-width="35.3"/>
 <path d="m2461 616a1482.4 1482.4 0 0 1 168.15 2089.5 1482.4 1482.4 0 0 1-2089.5 168.43 1482.4 1482.4 0 0 1-168.72-2089.5 1482.4 1482.4 0 0 1 2089.4-169" fill="none" opacity=".97" stroke="#000" stroke-dasharray="34, 34" stroke-width="34"/>
 <path d="m1019.9 341 476.25 1402.3 370.42-1428.8" fill="none" stroke="#000" stroke-dasharray="79, 26" stroke-width="26.5"/>
 <path d="m1102.5 539c-9.6-28.94-27.69-82.24-40.2-118.45l-22.74-65.83 29.06-8.92c205.68-63.11 428.02-80.27 642.11-49.56 36.7 5.27 134.3 24.34 136.69 26.72 1.12 1.11-59.41 241.32-61.61 244.52-0.35 0.51-23.02-3.58-50.38-9.08-75.98-15.27-126.05-20.66-210.26-22.64-128.29-3.01-242.36 11.05-358.7 44.22-22.46 6.4-42.11 11.64-43.67 11.64s-10.7-23.68-20.3-52.62z" fill="#e6e6e6" opacity=".97" stroke="#000" stroke-width="3.3"/>
 <text x="966.99976" y="1215.0004" font-size="1200px" stroke-width="26.5"/>
 <text x="1107" y="1198.0005" font-family="sans-serif" font-size="282.2px" letter-spacing="0" stroke-width="26.5" word-spacing="0"><tspan x="1107" y="1198.0005" font-family="sans-serif" font-size="211.7px" font-style="italic" stroke-width="26.5">r</tspan></text>
 <text x="1884.9998" y="560.00006" font-family="sans-serif" font-size="282.2px" letter-spacing="0" stroke-width="26.5" word-spacing="0"><tspan x="1884.9998" y="560.00006" font-size="211.7px" stroke-width="26.5">d<tspan font-family="sans-serif" font-size="211.7px" font-style="italic" stroke-width="26.5">r</tspan></tspan></text>
 <text x="1259.9998" y="165.99982" font-family="Calibri" font-size="211.7px" font-style="italic" font-weight="400" letter-spacing="0" stroke-width="26.5" word-spacing="0"><tspan x="1259.9998" y="165.99982" font-family="Calibri" font-size="211.7px" font-weight="400" stroke-width="26.5"><tspan dx="0" dy="0" font-style="italic">r </tspan><tspan dx="0" dy="0" font-style="normal">d</tspan><tspan dx="0" dy="0" font-style="normal">φ</tspan></tspan></text>
 <text x="1344.9996" y="1166.9993" font-family="Calibri" font-size="211.7px" font-style="italic" font-weight="400" letter-spacing="0" stroke-width="26.5" word-spacing="0"><tspan x="1344.9996" y="1166.9993" stroke-width="26.5"><tspan dx="0 0 0" dy="0 0 0" font-family="Calibri" font-size="211.7px" font-style="normal" font-weight="400" stroke-width="26.5">dφ</tspan></tspan></text>
</svg>
